<svg width="25" height="25" viewBox="0 0 25 25" fill="none" xmlns="http://www.w3.org/2000/svg">
<g id="&#208;&#152;&#208;&#186;&#208;&#190;&#208;&#189;&#208;&#186;&#208;&#176;">
<g id="Vector">
<path d="M14.6214 15.1214C12.8929 16.905 12.7671 19.1286 12.6179 24C17.1593 24 20.2943 23.9843 21.9129 22.4129C23.4843 20.7943 23.5 17.51 23.5 13.1179C18.6286 13.275 16.405 13.3929 14.6214 15.1214ZM1.5 13.1179C1.5 17.51 1.51571 20.7943 3.08714 22.4129C4.70571 23.9843 7.84071 24 12.3821 24C12.225 19.1286 12.1071 16.905 10.3786 15.1214C8.595 13.3929 6.37143 13.2671 1.5 13.1179ZM12.3821 2C7.84857 2 4.70571 2.01571 3.08714 3.58714C1.51571 5.20571 1.5 8.49 1.5 12.8821C6.37143 12.725 8.595 12.6071 10.3786 10.8786C12.1071 9.095 12.2329 6.87143 12.3821 2ZM14.6214 10.8786C12.8929 9.095 12.7671 6.87143 12.6179 2C17.1593 2 20.2943 2.01571 21.9129 3.58714C23.4843 5.20571 23.5 8.49 23.5 12.8821C18.6286 12.725 16.405 12.6071 14.6214 10.8786Z" fill="white"/>
<path d="M23.5 13.1179V12.8821C18.6286 12.725 16.405 12.6071 14.6214 10.8786C12.8929 9.095 12.7671 6.87143 12.6179 2H12.3821C12.225 6.87143 12.1071 9.095 10.3786 10.8786C8.595 12.6071 6.37143 12.7329 1.5 12.8821V13.1179C6.37143 13.275 8.595 13.3929 10.3786 15.1214C12.1071 16.905 12.2329 19.1286 12.3821 24H12.6179C12.775 19.1286 12.8929 16.905 14.6214 15.1214C16.405 13.3929 18.6286 13.2671 23.5 13.1179Z" fill="#171717"/>
</g>
</g>
</svg>
